<?xml version="1.0" encoding="UTF-8"?>
<svg id="Layer_2" data-name="Layer 2" xmlns="http://www.w3.org/2000/svg" viewBox="0 0 421.66 421.66">
  <defs>
    <style>
      .cls-1, .cls-2, .cls-3, .cls-4 {
        fill: #fff;
      }

      .cls-1, .cls-3, .cls-5, .cls-6, .cls-7 {
        stroke-miterlimit: 10;
      }

      .cls-1, .cls-5, .cls-7 {
        stroke: #fff;
      }

      .cls-3, .cls-6 {
        stroke: #231f20;
      }

      .cls-4, .cls-5 {
        fill-rule: evenodd;
      }

      .cls-5, .cls-6, .cls-7 {
        fill: #231f20;
      }
    </style>
  </defs>
  <g id="Layer_2-2" data-name="Layer 2">
    <circle cx="210.83" cy="210.83" r="210.83"/>
  </g>
  <g id="Layer_1-2" data-name="Layer 1">
    <path id="laptop" class="cls-3" d="M64.6,216.16c-2.19,4.41,0,21.08.96,29.92,2.06,17.58,4.51,39.41,6.62,56.99,1.29,10.5,2.4,18.16,4.37,22.82,1.41,3.36,3.3,5.3,6.11,6.38,2.05.79,4.59,1.15,7.74,1.33,48.67.66,178.11.57,229.03.89,18.18.12,22.59-.37,25.66-20.5,3.09-20.68,7.22-54.16,9.87-74.52.88-7.43,2.1-18.2.95-21.95-1.19-5.24-5.02-6-10-6.4-52.77-.54-192.57-.15-268.68-.14-4.75.25-10.65.04-12.61,5.12l-.03.07Z"/>
    <g id="body">
      <path id="shape_body_right" data-name="shape body right" class="cls-2" d="M253.23,152.79c30.83,0,55.82,24.99,55.82,55.82h-22.33c0-18.5-14.99-33.49-33.49-33.49v-22.33Z"/>
      <path id="shape_body_left" data-name="shape body left" class="cls-2" d="M165.89,175.12c-18.5,0-33.49,14.99-33.49,33.49h-22.33c0-30.83,24.99-55.82,55.82-55.82v22.33Z"/>
    </g>
    <path class="cls-3" d="M210.02,51.1c28.21,0,45.84,24.17,45.84,44.31s-3.53,28.2-7.05,20.14l-7.05-16.11s-21.16,0-28.21-8.06c0,0,10.58,24.17-10.58,0,0,0,3.53,16.11-17.63-4.03,0,0-10.58,8.06-14.1,28.2-.98,5.59-7.05,0-7.05-20.14s14.1-44.31,45.84-44.31"/>
    <g id="face">
      <path class="cls-4" d="M210.05,140.18c-6.59-.54-13.83-.77-19.91,2.35-1.83.84-3.67,1.9-5.64,2.25-9.83,1.27-10.49-16.42-13.02-22.97-3.26-8.73-2.11,3.04-1.96,5.75.6,9.21,2.21,18.31,6.74,26.21,6.45,11.69,18.75,23.56,33.32,23.69,15,.54,27.87-11.54,34.51-23.53,4.5-7.76,6.16-16.68,6.79-25.74,0-1.45,1.44-13.9-1.31-7.95-3.19,6.62-3.27,25.55-13.45,24.57-2.11-.32-4.05-1.48-6-2.36-6.01-3.06-13.38-2.78-19.73-2.27h-.36ZM227.21,149.06c-.76-.88-2.51-1.08-3.73-1.24-3.06-.35-6.22-1.03-9.17-.92-2.7.14-5.38.16-8.08,0-3.2-.13-6.66.61-9.96,1.01-4.11.49-4,2.84-2,5.89,1.78,2.77,4.03,5.23,6.9,5.59,1.61.2,3.33-.7,3.23-1.86-.14-1.31-1.52-2.25-2.13-3.31-.2-.33-.21-.61,0-.81.72-.56,2.18-.39,3.16-.37,3.69.34,7.58.07,11.27-.03,2.09.07,1.95.93.68,2.25-.55.67-1.25,1.37-1.33,2.26-.11,1.73,3.06,2.32,4.6,1.52,2.74-.89,8.02-7.19,6.69-9.8l-.14-.19Z"/>
    </g>
    <path class="cls-7" d="M210.24,242.77c14.46,0,23.49,12.39,23.49,22.71s-1.81,14.45-3.61,10.32l-3.61-8.26s-10.84,0-14.46-4.13c0,0,5.42,12.39-5.42,0,0,0,1.81,8.26-9.04-2.07,0,0-5.42,4.13-7.23,14.45-.5,2.86-3.61,0-3.61-10.32s7.23-22.71,23.49-22.71"/>
    <g id="face-2" data-name="face">
      <path class="cls-5" d="M210.25,288.42c-3.38-.28-7.09-.39-10.2,1.2-.94.43-1.88.98-2.89,1.15-5.04.65-5.38-8.42-6.67-11.77-1.67-4.48-1.08,1.56-1,2.95.31,4.72,1.13,9.38,3.46,13.43,3.31,5.99,9.61,12.07,17.08,12.14,7.69.28,14.28-5.92,17.68-12.06,2.3-3.98,3.16-8.55,3.48-13.19,0-.74.74-7.12-.67-4.08-1.64,3.39-1.67,13.1-6.89,12.59-1.08-.16-2.08-.76-3.07-1.21-3.08-1.57-6.86-1.43-10.11-1.16h-.19ZM219.04,292.97c-.39-.45-1.29-.55-1.91-.63-1.57-.18-3.19-.53-4.7-.47-1.39.07-2.76.08-4.14,0-1.64-.07-3.41.31-5.1.52-2.11.25-2.05,1.46-1.02,3.02.91,1.42,2.07,2.68,3.54,2.86.82.1,1.71-.36,1.66-.95-.07-.67-.78-1.15-1.09-1.7-.1-.17-.11-.31,0-.41.37-.29,1.12-.2,1.62-.19,1.89.17,3.88.03,5.77-.02,1.07.04,1,.48.35,1.15-.28.35-.64.7-.68,1.16-.05.88,1.57,1.19,2.36.78,1.41-.45,4.11-3.68,3.43-5.03l-.07-.1Z"/>
    </g>
    <g id="icon">
      <path class="cls-1" d="M233.51,111s-9.87-.42-15.29,1.25c-.96.3-1.68.56-1.68.56-.61.31-1.47.71-2.56,1.01-.75.21-1.83.51-3.26.49-1.31-.02-2.3-.29-3.02-.49-1.08-.31-1.95-.7-2.56-1.01,0,0-.72-.26-1.68-.56-5.42-1.67-15.29-1.25-15.29-1.25-2.05.09-4.69.26-7.79.61-.67.08-1.18.66-1.15,1.34.02.57.04,1.15.06,1.72.02.44.25.83.62,1.06.05.03.09.06.14.09,0,0,.55.37.93.99.62.98.65,2.33.77,3.53,0,0,.16,1.53.58,3.18.26,1,.7,2.64,1.85,4.4.52.79,1.15,1.75,2.33,2.61,1.32.96,2.59,1.26,3.56,1.47,2.28.51,4.11.27,5.7.05,2.67-.37,4.73-.66,6.77-2.18,1.64-1.22,2.6-2.73,3.16-3.62.42-.65,1.16-1.82,1.73-3.51.37-1.09.77-2.17,1.12-3.27.21-.65.42-1.36,1.09-1.81.43-.29.88-.36,1.18-.37.3.02.76.09,1.18.37.67.45.88,1.16,1.09,1.81.35,1.1.75,2.18,1.12,3.27.57,1.68,1.31,2.85,1.73,3.51.57.89,1.53,2.4,3.16,3.62,2.04,1.52,4.1,1.81,6.77,2.18,1.59.22,3.41.46,5.7-.05.97-.21,2.24-.51,3.56-1.47,1.18-.86,1.81-1.82,2.33-2.61,1.16-1.77,1.6-3.4,1.85-4.4.43-1.65.58-3.18.58-3.18.12-1.2.15-2.55.77-3.53.39-.62.93-.99.93-.99.05-.03.09-.06.14-.09.37-.23.61-.63.62-1.06.02-.57.04-1.15.06-1.72.03-.68-.48-1.26-1.15-1.34-3.1-.35-5.74-.53-7.79-.61ZM205.94,119.55c-.08,1.51-.2,3.56-1.5,5.8-.35.6-1.24,2.1-2.99,3.33-2.35,1.65-4.75,1.77-6.86,1.87-2.2.11-4.45.21-6.61-1.18-1.35-.87-2.15-2-2.43-2.4-.93-1.33-1.27-2.56-1.56-3.58-.17-.62-.5-1.94-.53-3.68-.03-1.54-.06-2.52.41-3.52.78-1.68,2.37-2.45,3.37-2.91,1.12-.52,2.37-.87,9.63-.61,3.74.13,5.36.3,6.86,1.43.38.29,1.3,1,1.85,2.27.13.3.48,1.17.36,3.18ZM238.19,119.71c-.03,1.73-.36,3.06-.53,3.68-.29,1.03-.63,2.25-1.56,3.58-.28.4-1.09,1.53-2.43,2.4-2.16,1.4-4.41,1.29-6.61,1.18-2.11-.1-4.51-.22-6.86-1.87-1.75-1.23-2.64-2.73-2.99-3.33-1.29-2.24-1.41-4.29-1.5-5.8-.11-2.01.23-2.89.36-3.18.55-1.27,1.47-1.99,1.85-2.27,1.5-1.14,3.12-1.3,6.86-1.43,7.26-.26,8.51.08,9.63.61.99.46,2.59,1.23,3.37,2.91.47,1,.44,1.98.41,3.52Z"/>
    </g>
    <g id="icon-2" data-name="icon">
      <path class="cls-6" d="M222.22,272.04s-4.96-.21-7.68.63c-.48.15-.85.28-.85.28-.3.16-.74.35-1.29.51-.38.11-.92.25-1.64.25-.66,0-1.15-.14-1.51-.25-.54-.15-.98-.35-1.29-.51,0,0-.36-.13-.85-.28-2.72-.84-7.68-.63-7.68-.63-1.03.04-2.36.13-3.91.31-.34.04-.59.33-.58.67.01.29.02.58.03.87,0,.22.13.42.31.53.02.01.05.03.07.05,0,0,.27.19.47.5.31.49.33,1.17.39,1.77,0,0,.08.77.29,1.6.13.5.35,1.32.93,2.21.26.4.58.88,1.17,1.31.66.48,1.3.63,1.79.74,1.15.25,2.06.13,2.86.02,1.34-.19,2.37-.33,3.4-1.1.82-.61,1.3-1.37,1.59-1.82.21-.33.58-.92.87-1.76.19-.55.39-1.09.56-1.64.1-.33.21-.68.55-.91.22-.14.44-.18.59-.19.15,0,.38.04.59.19.33.22.44.58.55.91.18.55.38,1.09.56,1.64.29.84.66,1.43.87,1.76.28.45.77,1.2,1.59,1.82,1.03.76,2.06.91,3.4,1.1.8.11,1.71.23,2.86-.02.49-.11,1.12-.26,1.79-.74.59-.43.91-.91,1.17-1.31.58-.89.8-1.71.93-2.21.21-.83.29-1.6.29-1.6.06-.6.08-1.28.39-1.77.2-.31.47-.5.47-.5.02-.02.05-.03.07-.05.19-.11.31-.31.31-.53.01-.29.02-.58.03-.87.01-.34-.24-.63-.58-.67-1.55-.18-2.88-.26-3.91-.31ZM208.37,276.33c-.04.76-.1,1.79-.75,2.91-.18.3-.62,1.06-1.5,1.67-1.18.83-2.38.89-3.44.94-1.1.05-2.23.11-3.32-.59-.68-.44-1.08-1.01-1.22-1.21-.47-.67-.64-1.28-.78-1.8-.09-.31-.25-.98-.27-1.85-.02-.77-.03-1.26.2-1.77.39-.85,1.19-1.23,1.69-1.46.56-.26,1.19-.44,4.84-.31,1.88.07,2.69.15,3.44.72.19.14.65.5.93,1.14.06.15.24.59.18,1.6ZM224.57,276.41c-.02.87-.18,1.53-.27,1.85-.14.52-.31,1.13-.78,1.8-.14.2-.55.77-1.22,1.21-1.08.7-2.22.65-3.32.59-1.06-.05-2.26-.11-3.44-.94-.88-.62-1.33-1.37-1.5-1.67-.65-1.12-.71-2.15-.75-2.91-.06-1.01.12-1.45.18-1.6.28-.64.74-1,.93-1.14.75-.57,1.57-.65,3.44-.72,3.65-.13,4.27.04,4.84.31.5.23,1.3.62,1.69,1.46.23.5.22,1,.2,1.77Z"/>
    </g>
  </g>
</svg>